# xmcd CD database file
#
# Track frame offsets:
#	150
#	18359
#	45934
#	57660
#	74798
#	108261
#	120473
#	132714
#	145474
#	159811
#
# Disc length: 2495 seconds
#
# Revision: 0
# Processed by: cddbd v1.5PL3 Copyright (c) Steve Scherf et al.
# Submitted via: CDex 1.51
#
DISCID=8f09bd0a
DTITLE=Burtschi Brothers - Live in Oklahoma [CD1]
DYEAR=2003
DGENRE=Country
TTITLE0=2009
TTITLE1=Blues Stay Away
TTITLE2=Between the Bottle and Her
TTITLE3=Columbus Stockade
TTITLE4=Onto You
TTITLE5=Uncertain Texas
TTITLE6=The Claw
TTITLE7=Ride Me Down Easy
TTITLE8=Ain't Goin' Home Tonight
TTITLE9=Outlaw Band
EXTD=YEAR: 2003
EXTT0=
EXTT1=
EXTT2=
EXTT3=
EXTT4=
EXTT5=
EXTT6=
EXTT7=
EXTT8=
EXTT9=
PLAYORDER=
